<svg width="16" height="17" viewBox="0 0 16 17" fill="none" xmlns="http://www.w3.org/2000/svg">
<path d="M8.57707 2.88897L14.9277 13.889C14.9862 13.9903 15.0171 14.1053 15.0171 14.2223C15.0171 14.3393 14.9863 14.4543 14.9277 14.5556C14.8692 14.657 14.7851 14.7411 14.6837 14.7996C14.5824 14.8582 14.4674 14.889 14.3504 14.889H1.64907C1.53205 14.889 1.41709 14.8582 1.31574 14.7996C1.2144 14.7411 1.13024 14.657 1.07173 14.5556C1.01322 14.4543 0.982421 14.3393 0.982422 14.2223C0.982423 14.1053 1.01323 13.9903 1.07174 13.889L7.4224 2.88897C7.48092 2.78763 7.56508 2.70348 7.66642 2.64497C7.76776 2.58647 7.88272 2.55566 7.99974 2.55566C8.11676 2.55566 8.23171 2.58647 8.33306 2.64497C8.4344 2.70348 8.51856 2.78763 8.57707 2.88897ZM2.80374 13.5556H13.1957L7.99974 4.55563L2.80374 13.5556ZM7.33307 11.5556H8.6664V12.889H7.33307V11.5556ZM7.33307 6.88897H8.6664V10.2223H7.33307V6.88897Z" fill="#DC3737"/>
</svg>
