<svg width="24" height="25" viewBox="0 0 24 25" fill="none" xmlns="http://www.w3.org/2000/svg">
<path d="M17 16.7778H19V4.77783H9V6.77783H17V16.7778ZM17 18.7778V21.7778C17 22.3298 16.55 22.7778 15.993 22.7778H4.007C3.87513 22.7786 3.7444 22.7533 3.62232 22.7035C3.50025 22.6536 3.38923 22.5801 3.29566 22.4871C3.20208 22.3942 3.12779 22.2837 3.07705 22.162C3.02632 22.0403 3.00013 21.9097 3 21.7778L3.003 7.77783C3.003 7.22583 3.453 6.77783 4.01 6.77783H7V3.77783C7 3.51262 7.10536 3.25826 7.29289 3.07073C7.48043 2.88319 7.73478 2.77783 8 2.77783H20C20.2652 2.77783 20.5196 2.88319 20.7071 3.07073C20.8946 3.25826 21 3.51262 21 3.77783V17.7778C21 18.043 20.8946 18.2974 20.7071 18.4849C20.5196 18.6725 20.2652 18.7778 20 18.7778H17ZM5.003 8.77783L5 20.7778H15V8.77783H5.003ZM7 16.7778H11.5C11.6326 16.7778 11.7598 16.7252 11.8536 16.6314C11.9473 16.5376 12 16.4104 12 16.2778C12 16.1452 11.9473 16.018 11.8536 15.9243C11.7598 15.8305 11.6326 15.7778 11.5 15.7778H8.5C7.83696 15.7778 7.20107 15.5144 6.73223 15.0456C6.26339 14.5768 6 13.9409 6 13.2778C6 12.6148 6.26339 11.9789 6.73223 11.5101C7.20107 11.0412 7.83696 10.7778 8.5 10.7778H9V9.77783H11V10.7778H13V12.7778H8.5C8.36739 12.7778 8.24021 12.8305 8.14645 12.9243C8.05268 13.018 8 13.1452 8 13.2778C8 13.4104 8.05268 13.5376 8.14645 13.6314C8.24021 13.7252 8.36739 13.7778 8.5 13.7778H11.5C12.163 13.7778 12.7989 14.0412 13.2678 14.5101C13.7366 14.9789 14 15.6148 14 16.2778C14 16.9409 13.7366 17.5768 13.2678 18.0456C12.7989 18.5144 12.163 18.7778 11.5 18.7778H11V19.7778H9V18.7778H7V16.7778Z" fill="#798787"/>
</svg>
