<svg width="24" height="25" viewBox="0 0 24 25" fill="none" xmlns="http://www.w3.org/2000/svg">
<path d="M12 22.7778C6.477 22.7778 2 18.3008 2 12.7778C2 7.25483 6.477 2.77783 12 2.77783C17.523 2.77783 22 7.25483 22 12.7778C22 18.3008 17.523 22.7778 12 22.7778ZM9.71 20.4448C8.72341 18.3521 8.15187 16.088 8.027 13.7778H4.062C4.25659 15.3167 4.89392 16.766 5.89657 17.9495C6.89922 19.1331 8.22401 20 9.71 20.4448ZM10.03 13.7778C10.181 16.2168 10.878 18.5078 12 20.5298C13.1523 18.4544 13.8254 16.1473 13.97 13.7778H10.03ZM19.938 13.7778H15.973C15.8481 16.088 15.2766 18.3521 14.29 20.4448C15.776 20 17.1008 19.1331 18.1034 17.9495C19.1061 16.766 19.7434 15.3167 19.938 13.7778ZM4.062 11.7778H8.027C8.15187 9.46762 8.72341 7.20352 9.71 5.11083C8.22401 5.55571 6.89922 6.42259 5.89657 7.60613C4.89392 8.78967 4.25659 10.2389 4.062 11.7778ZM10.031 11.7778H13.969C13.8248 9.40843 13.152 7.10136 12 5.02583C10.8477 7.10128 10.1746 9.40835 10.03 11.7778H10.031ZM14.29 5.11083C15.2766 7.20352 15.8481 9.46762 15.973 11.7778H19.938C19.7434 10.2389 19.1061 8.78967 18.1034 7.60613C17.1008 6.42259 15.776 5.55571 14.29 5.11083Z" fill="#798787"/>
</svg>
