<svg width="54" height="49" viewBox="0 0 54 49" fill="#000000" xmlns="http://www.w3.org/2000/svg">
<path d="M7.87336 48L7.82003 48.0533L7.76403 48H2.97737C2.27553 47.9993 1.60269 47.72 1.10667 47.2235C0.61065 46.727 0.332031 46.0538 0.332031 45.352V2.648C0.336911 1.94767 0.617099 1.27738 1.11207 0.781914C1.60703 0.286448 2.27705 0.00558573 2.97737 0H51.02C52.4814 0 53.6654 1.18667 53.6654 2.648V45.352C53.6605 46.0523 53.3803 46.7226 52.8853 47.2181C52.3904 47.7135 51.7204 47.9944 51.02 48H7.87336ZM48.332 32V5.33333H5.66536V42.6667L32.332 16L48.332 32ZM48.332 39.5413L32.332 23.5413L13.2067 42.6667H48.332V39.5413ZM16.332 21.3333C14.9175 21.3333 13.561 20.7714 12.5608 19.7712C11.5606 18.771 10.9987 17.4145 10.9987 16C10.9987 14.5855 11.5606 13.229 12.5608 12.2288C13.561 11.2286 14.9175 10.6667 16.332 10.6667C17.7465 10.6667 19.1031 11.2286 20.1033 12.2288C21.1035 13.229 21.6654 14.5855 21.6654 16C21.6654 17.4145 21.1035 18.771 20.1033 19.7712C19.1031 20.7714 17.7465 21.3333 16.332 21.3333Z" />
</svg>
