<svg width="24" height="25" viewBox="0 0 24 25" fill="none" xmlns="http://www.w3.org/2000/svg">
<path d="M6 8.77783V7.77783C6 6.18653 6.63214 4.66041 7.75736 3.53519C8.88258 2.40997 10.4087 1.77783 12 1.77783C13.5913 1.77783 15.1174 2.40997 16.2426 3.53519C17.3679 4.66041 18 6.18653 18 7.77783V8.77783H20C20.2652 8.77783 20.5196 8.88319 20.7071 9.07073C20.8946 9.25826 21 9.51262 21 9.77783V21.7778C21 22.043 20.8946 22.2974 20.7071 22.4849C20.5196 22.6725 20.2652 22.7778 20 22.7778H4C3.73478 22.7778 3.48043 22.6725 3.29289 22.4849C3.10536 22.2974 3 22.043 3 21.7778V9.77783C3 9.51262 3.10536 9.25826 3.29289 9.07073C3.48043 8.88319 3.73478 8.77783 4 8.77783H6ZM19 10.7778H5V20.7778H19V10.7778ZM11 16.5098C10.6187 16.2897 10.3207 15.9499 10.1522 15.5431C9.98376 15.1364 9.9542 14.6854 10.0681 14.2601C10.1821 13.8349 10.4332 13.4591 10.7825 13.1911C11.1318 12.9231 11.5597 12.7778 12 12.7778C12.4403 12.7778 12.8682 12.9231 13.2175 13.1911C13.5668 13.4591 13.8179 13.8349 13.9319 14.2601C14.0458 14.6854 14.0162 15.1364 13.8478 15.5431C13.6793 15.9499 13.3813 16.2897 13 16.5098V18.7778H11V16.5098ZM8 8.77783H16V7.77783C16 6.71697 15.5786 5.69955 14.8284 4.9494C14.0783 4.19926 13.0609 3.77783 12 3.77783C10.9391 3.77783 9.92172 4.19926 9.17157 4.9494C8.42143 5.69955 8 6.71697 8 7.77783V8.77783Z" fill="#798787"/>
</svg>
