<svg width="24" height="25" viewBox="0 0 24 25" fill="none" xmlns="http://www.w3.org/2000/svg">
<path d="M5 22.6665C4.73478 22.6665 4.48043 22.5611 4.29289 22.3736C4.10536 22.1861 4 21.9317 4 21.6665V3.6665C4 3.40129 4.10536 3.14693 4.29289 2.9594C4.48043 2.77186 4.73478 2.6665 5 2.6665H19C19.2652 2.6665 19.5196 2.77186 19.7071 2.9594C19.8946 3.14693 20 3.40129 20 3.6665V6.6665H18V4.6665H6V20.6665H18V18.6665H20V21.6665C20 21.9317 19.8946 22.1861 19.7071 22.3736C19.5196 22.5611 19.2652 22.6665 19 22.6665H5ZM18 16.6665V13.6665H11V11.6665H18V8.6665L23 12.6665L18 16.6665Z" fill="#798787"/>
</svg>
