<svg width="24" height="25" viewBox="0 0 24 25" fill="none" xmlns="http://www.w3.org/2000/svg">
<path d="M6 2.88867C8.69 2.88867 11.024 4.40567 12.197 6.62967C13.374 4.97167 15.31 3.88867 17.5 3.88867H21V6.38867C21 9.97867 18.09 12.8887 14.5 12.8887H13V13.8887H18V20.8887C18 21.9937 17.105 22.8887 16 22.8887H8C6.895 22.8887 6 21.9937 6 20.8887V13.8887H11V11.8887H9C5.134 11.8887 2 8.75467 2 4.88867V2.88867H6ZM16 15.8887H8V20.8887H16V15.8887ZM19 5.88867H17.5C15.015 5.88867 13 7.90367 13 10.3887V10.8887H14.5C16.985 10.8887 19 8.87367 19 6.38867V5.88867ZM6 4.88867H4C4 7.64967 6.239 9.88867 9 9.88867H11C11 7.12767 8.761 4.88867 6 4.88867Z" fill="#798787"/>
</svg>
