<svg width="24" height="25" viewBox="0 0 24 25" fill="none" xmlns="http://www.w3.org/2000/svg">
<g clip-path="url(#clip0_8460_4096)">
<path d="M18 10.8887C18 9.29737 17.3679 7.77125 16.2426 6.64603C15.1174 5.52081 13.5913 4.88867 12 4.88867C10.4087 4.88867 8.88258 5.52081 7.75736 6.64603C6.63214 7.77125 6 9.29737 6 10.8887V18.8887H18V10.8887ZM20 19.5557L20.4 20.0887C20.4557 20.163 20.4896 20.2513 20.498 20.3438C20.5063 20.4363 20.4887 20.5292 20.4472 20.6123C20.4057 20.6953 20.3419 20.7652 20.2629 20.814C20.1839 20.8628 20.0929 20.8887 20 20.8887H4C3.90714 20.8887 3.81612 20.8628 3.73713 20.814C3.65815 20.7652 3.59431 20.6953 3.55279 20.6123C3.51126 20.5292 3.49368 20.4363 3.50202 20.3438C3.51036 20.2513 3.54429 20.163 3.6 20.0887L4 19.5557V10.8887C4 8.76694 4.84286 6.73211 6.34315 5.23182C7.84344 3.73153 9.87827 2.88867 12 2.88867C14.1217 2.88867 16.1566 3.73153 17.6569 5.23182C19.1571 6.73211 20 8.76694 20 10.8887V19.5557ZM9.5 21.8887H14.5C14.5 22.5517 14.2366 23.1876 13.7678 23.6564C13.2989 24.1253 12.663 24.3887 12 24.3887C11.337 24.3887 10.7011 24.1253 10.2322 23.6564C9.76339 23.1876 9.5 22.5517 9.5 21.8887Z" fill="#798787"/>
</g>
<defs>
<clipPath id="clip0_8460_4096">
<rect width="24" height="24" fill="white" transform="translate(0 0.888672)"/>
</clipPath>
</defs>
</svg>
