<svg width="24" height="25" viewBox="0 0 24 25" fill="none" xmlns="http://www.w3.org/2000/svg">
<path d="M3.33737 17.7781C2.91465 17.0471 2.58604 16.2656 2.35938 15.4521C2.85268 15.2012 3.26697 14.8188 3.5564 14.347C3.84584 13.8753 3.99914 13.3327 3.99935 12.7793C3.99955 12.2258 3.84666 11.6831 3.55758 11.2111C3.2685 10.7392 2.85449 10.3564 2.36138 10.1051C2.81341 8.47063 3.6741 6.9781 4.86237 5.76814C5.32647 6.06987 5.86499 6.2373 6.41835 6.25192C6.97171 6.26654 7.51833 6.12777 7.9977 5.85098C8.47708 5.57418 8.87053 5.17014 9.1345 4.68358C9.39848 4.19703 9.52268 3.64692 9.49338 3.09414C11.1355 2.66977 12.8586 2.67045 14.5004 3.09614C14.4713 3.64891 14.5958 4.19893 14.86 4.68535C15.1241 5.17177 15.5177 5.57562 15.9972 5.8522C16.4767 6.12879 17.0233 6.26733 17.5766 6.25249C18.13 6.23766 18.6684 6.07002 19.1324 5.76814C19.7114 6.35814 20.2254 7.02914 20.6574 7.77814C21.0904 8.52714 21.4144 9.30814 21.6354 10.1041C21.1421 10.355 20.7278 10.7375 20.4383 11.2092C20.1489 11.681 19.9956 12.2236 19.9954 12.777C19.9952 13.3305 20.1481 13.8732 20.4372 14.3451C20.7263 14.8171 21.1403 15.1999 21.6334 15.4511C21.1813 17.0857 20.3206 18.5782 19.1324 19.7881C18.6683 19.4864 18.1298 19.319 17.5764 19.3044C17.023 19.2897 16.4764 19.4285 15.997 19.7053C15.5177 19.9821 15.1242 20.3861 14.8602 20.8727C14.5963 21.3593 14.4721 21.9094 14.5014 22.4621C12.8593 22.8865 11.1361 22.8858 9.49437 22.4601C9.52342 21.9074 9.39897 21.3574 9.1348 20.8709C8.87062 20.3845 8.47702 19.9807 7.99755 19.7041C7.51808 19.4275 6.97143 19.289 6.4181 19.3038C5.86477 19.3186 5.32634 19.4863 4.86237 19.7881C4.27137 19.1851 3.75897 18.5097 3.33737 17.7781ZM8.99738 17.9741C10.063 18.5888 10.8642 19.5752 11.2474 20.7441C11.7464 20.7911 12.2474 20.7921 12.7464 20.7451C13.1298 19.576 13.9314 18.5896 14.9974 17.9751C16.0626 17.3588 17.3179 17.1576 18.5224 17.4101C18.8124 17.0021 19.0624 16.5671 19.2704 16.1121C18.4498 15.1956 17.9965 14.0084 17.9974 12.7781C17.9974 11.5181 18.4674 10.3411 19.2704 9.44414C19.0609 8.98929 18.8098 8.55478 18.5204 8.14614C17.3167 8.39845 16.0622 8.19762 14.9974 7.58214C13.9317 6.96751 13.1305 5.98113 12.7474 4.81214C12.2484 4.76514 11.7474 4.76414 11.2484 4.81114C10.865 5.98029 10.0634 6.9667 8.99738 7.58114C7.93216 8.19746 6.67685 8.39866 5.47237 8.14614C5.18294 8.55443 4.93251 8.98901 4.72438 9.44414C5.54495 10.3607 5.99826 11.5479 5.99738 12.7781C5.99738 14.0381 5.52738 15.2151 4.72438 16.1121C4.93385 16.567 5.18491 17.0015 5.47438 17.4101C6.67809 17.1578 7.93258 17.3587 8.99738 17.9741ZM11.9974 15.7781C11.2017 15.7781 10.4387 15.4621 9.87605 14.8995C9.31345 14.3369 8.99738 13.5738 8.99738 12.7781C8.99738 11.9825 9.31345 11.2194 9.87605 10.6568C10.4387 10.0942 11.2017 9.77814 11.9974 9.77814C12.793 9.77814 13.5561 10.0942 14.1187 10.6568C14.6813 11.2194 14.9974 11.9825 14.9974 12.7781C14.9974 13.5738 14.6813 14.3369 14.1187 14.8995C13.5561 15.4621 12.793 15.7781 11.9974 15.7781ZM11.9974 13.7781C12.2626 13.7781 12.5169 13.6728 12.7045 13.4852C12.892 13.2977 12.9974 13.0434 12.9974 12.7781C12.9974 12.5129 12.892 12.2586 12.7045 12.071C12.5169 11.8835 12.2626 11.7781 11.9974 11.7781C11.7322 11.7781 11.4778 11.8835 11.2903 12.071C11.1027 12.2586 10.9974 12.5129 10.9974 12.7781C10.9974 13.0434 11.1027 13.2977 11.2903 13.4852C11.4778 13.6728 11.7322 13.7781 11.9974 13.7781Z" fill="#798787"/>
</svg>
