<svg width="18" height="19" viewBox="0 0 18 19" fill="#000000" xmlns="http://www.w3.org/2000/svg">
<path d="M2.08366 12.3337V2.33366H0.416992V0.666992H2.91699C3.13801 0.666992 3.34997 0.75479 3.50625 0.91107C3.66253 1.06735 3.75033 1.27931 3.75033 1.50033V11.5003H14.1153L15.782 4.83366H5.41699V3.16699H16.8503C16.977 3.167 17.102 3.19588 17.2158 3.25144C17.3297 3.307 17.4293 3.38778 17.5073 3.48765C17.5852 3.58751 17.6393 3.70382 17.6656 3.82775C17.6918 3.95168 17.6894 4.07995 17.6587 4.20283L15.5753 12.5362C15.5302 12.7164 15.4261 12.8763 15.2797 12.9906C15.1332 13.1049 14.9528 13.167 14.767 13.167H2.91699C2.69598 13.167 2.48402 13.0792 2.32774 12.9229C2.17146 12.7666 2.08366 12.5547 2.08366 12.3337ZM3.75033 18.167C3.3083 18.167 2.88437 17.9914 2.57181 17.6788C2.25925 17.3663 2.08366 16.9424 2.08366 16.5003C2.08366 16.0583 2.25925 15.6344 2.57181 15.3218C2.88437 15.0093 3.3083 14.8337 3.75033 14.8337C4.19235 14.8337 4.61628 15.0093 4.92884 15.3218C5.2414 15.6344 5.41699 16.0583 5.41699 16.5003C5.41699 16.9424 5.2414 17.3663 4.92884 17.6788C4.61628 17.9914 4.19235 18.167 3.75033 18.167ZM13.7503 18.167C13.3083 18.167 12.8844 17.9914 12.5718 17.6788C12.2593 17.3663 12.0837 16.9424 12.0837 16.5003C12.0837 16.0583 12.2593 15.6344 12.5718 15.3218C12.8844 15.0093 13.3083 14.8337 13.7503 14.8337C14.1924 14.8337 14.6163 15.0093 14.9288 15.3218C15.2414 15.6344 15.417 16.0583 15.417 16.5003C15.417 16.9424 15.2414 17.3663 14.9288 17.6788C14.6163 17.9914 14.1924 18.167 13.7503 18.167Z"/>
</svg>
