<svg width="12" height="13" viewBox="0 0 12 13" fill="none" xmlns="http://www.w3.org/2000/svg">
<g id="icon / time">
<path id="Vector" d="M6 11.667C3.2385 11.667 1 9.42849 1 6.66699C1 3.90549 3.2385 1.66699 6 1.66699C8.7615 1.66699 11 3.90549 11 6.66699C11 9.42849 8.7615 11.667 6 11.667ZM6 10.667C7.06087 10.667 8.07828 10.2456 8.82843 9.49542C9.57857 8.74527 10 7.72786 10 6.66699C10 5.60613 9.57857 4.58871 8.82843 3.83857C8.07828 3.08842 7.06087 2.66699 6 2.66699C4.93913 2.66699 3.92172 3.08842 3.17157 3.83857C2.42143 4.58871 2 5.60613 2 6.66699C2 7.72786 2.42143 8.74527 3.17157 9.49542C3.92172 10.2456 4.93913 10.667 6 10.667ZM6.5 6.66699H8.5V7.66699H5.5V4.16699H6.5V6.66699Z" fill="#2978B8"/>
</g>
</svg>
