<svg width="24" height="25" viewBox="0 0 24 25" fill="none" xmlns="http://www.w3.org/2000/svg">
<path d="M12 22.8887C6.477 22.8887 2 18.4117 2 12.8887C2 7.36567 6.477 2.88867 12 2.88867C17.523 2.88867 22 7.36567 22 12.8887C22 18.4117 17.523 22.8887 12 22.8887ZM12 20.8887C14.1217 20.8887 16.1566 20.0458 17.6569 18.5455C19.1571 17.0452 20 15.0104 20 12.8887C20 10.7669 19.1571 8.73211 17.6569 7.23182C16.1566 5.73153 14.1217 4.88867 12 4.88867C9.87827 4.88867 7.84344 5.73153 6.34315 7.23182C4.84285 8.73211 4 10.7669 4 12.8887C4 15.0104 4.84285 17.0452 6.34315 18.5455C7.84344 20.0458 9.87827 20.8887 12 20.8887ZM11 15.8887H13V17.8887H11V15.8887ZM11 7.88867H13V13.8887H11V7.88867Z" fill="#DC3737"/>
</svg>
