<svg width="25" height="24" viewBox="0 0 25 24" fill="#000000" xmlns="http://www.w3.org/2000/svg">
<g id="icon / account">
<path id="Vector" d="M12.5 22C6.977 22 2.5 17.523 2.5 12C2.5 6.477 6.977 2 12.5 2C18.023 2 22.5 6.477 22.5 12C22.5 17.523 18.023 22 12.5 22ZM7.513 18.256C8.92855 19.3877 10.6877 20.0029 12.5 20C14.47 20 16.273 19.288 17.667 18.108C17.0157 17.4397 16.2371 16.9089 15.377 16.5468C14.517 16.1847 13.5931 15.9988 12.66 16C11.6926 15.9989 10.7355 16.1989 9.84947 16.5872C8.96343 16.9756 8.16778 17.5439 7.513 18.256ZM6.116 16.82C6.95645 15.9281 7.97067 15.2177 9.09614 14.7327C10.2216 14.2477 11.4345 13.9984 12.66 14C13.8417 13.9985 15.012 14.2304 16.1037 14.6824C17.1955 15.1344 18.1873 15.7976 19.022 16.634C19.8781 15.4291 20.3836 14.0106 20.4826 12.5359C20.5815 11.0612 20.27 9.58789 19.5825 8.27946C18.895 6.97102 17.8585 5.87862 16.588 5.12345C15.3174 4.36827 13.8625 3.97984 12.3846 4.00125C10.9067 4.02267 9.46366 4.45308 8.21552 5.24476C6.96738 6.03643 5.96296 7.1584 5.31369 8.4862C4.66442 9.814 4.39569 11.2957 4.53732 12.7669C4.67894 14.2382 5.22537 15.6414 6.116 16.821V16.82ZM12.5 13C11.4391 13 10.4217 12.5786 9.67157 11.8284C8.92143 11.0783 8.5 10.0609 8.5 9C8.5 7.93913 8.92143 6.92172 9.67157 6.17157C10.4217 5.42143 11.4391 5 12.5 5C13.5609 5 14.5783 5.42143 15.3284 6.17157C16.0786 6.92172 16.5 7.93913 16.5 9C16.5 10.0609 16.0786 11.0783 15.3284 11.8284C14.5783 12.5786 13.5609 13 12.5 13ZM12.5 11C13.0304 11 13.5391 10.7893 13.9142 10.4142C14.2893 10.0391 14.5 9.53043 14.5 9C14.5 8.46957 14.2893 7.96086 13.9142 7.58579C13.5391 7.21071 13.0304 7 12.5 7C11.9696 7 11.4609 7.21071 11.0858 7.58579C10.7107 7.96086 10.5 8.46957 10.5 9C10.5 9.53043 10.7107 10.0391 11.0858 10.4142C11.4609 10.7893 11.9696 11 12.5 11Z"/>
</g>
</svg>
