<svg width="25" height="24" viewBox="0 0 25 24" fill="#000000" xmlns="http://www.w3.org/2000/svg">
<g id="icon / home">
<path id="Vector" d="M19.75 20.9999H5.75C5.48478 20.9999 5.23043 20.8946 5.04289 20.707C4.85536 20.5195 4.75 20.2651 4.75 19.9999V10.9999H1.75L12.077 1.61192C12.2611 1.4444 12.5011 1.35156 12.75 1.35156C12.9989 1.35156 13.2389 1.4444 13.423 1.61192L23.75 10.9999H20.75V19.9999C20.75 20.2651 20.6446 20.5195 20.4571 20.707C20.2696 20.8946 20.0152 20.9999 19.75 20.9999ZM13.75 18.9999H18.75V9.15692L12.75 3.70292L6.75 9.15692V18.9999H11.75V12.9999H13.75V18.9999Z"/>
</g>
</svg>
