<svg width="25" height="24" viewBox="0 0 25 24" fill="#000000" xmlns="http://www.w3.org/2000/svg">
<g id="icon / truck">
<path id="Vector" d="M9.465 18C9.34612 18.8343 8.93021 19.5977 8.29368 20.1499C7.65714 20.7022 6.84272 21.0063 6 21.0063C5.15728 21.0063 4.34286 20.7022 3.70632 20.1499C3.06979 19.5977 2.65388 18.8343 2.535 18H1.5V6C1.5 5.73478 1.60536 5.48043 1.79289 5.29289C1.98043 5.10536 2.23478 5 2.5 5H16.5C16.7652 5 17.0196 5.10536 17.2071 5.29289C17.3946 5.48043 17.5 5.73478 17.5 6V8H20.5L23.5 12.056V18H21.465C21.3461 18.8343 20.9302 19.5977 20.2937 20.1499C19.6571 20.7022 18.8427 21.0063 18 21.0063C17.1573 21.0063 16.3429 20.7022 15.7063 20.1499C15.0698 19.5977 14.6539 18.8343 14.535 18H9.465ZM15.5 7H3.5V15.05C3.89456 14.6472 4.3806 14.3457 4.91675 14.1711C5.4529 13.9966 6.02329 13.9541 6.57938 14.0474C7.13546 14.1407 7.66077 14.3669 8.11061 14.7069C8.56044 15.0469 8.92148 15.4905 9.163 16H14.837C15.005 15.647 15.23 15.326 15.5 15.05V7ZM17.5 13H21.5V12.715L19.492 10H17.5V13ZM18 19C18.398 19 18.7796 18.8419 19.061 18.5605C19.3424 18.2791 19.5005 17.8975 19.5005 17.4995C19.5005 17.1015 19.3424 16.7199 19.061 16.4385C18.7796 16.1571 18.398 15.999 18 15.999C17.602 15.999 17.2204 16.1571 16.939 16.4385C16.6576 16.7199 16.4995 17.1015 16.4995 17.4995C16.4995 17.8975 16.6576 18.2791 16.939 18.5605C17.2204 18.8419 17.602 19 18 19ZM7.5 17.5C7.5 17.303 7.4612 17.108 7.38582 16.926C7.31044 16.744 7.19995 16.5786 7.06066 16.4393C6.92137 16.3001 6.75601 16.1896 6.57403 16.1142C6.39204 16.0388 6.19698 16 6 16C5.80302 16 5.60796 16.0388 5.42597 16.1142C5.24399 16.1896 5.07863 16.3001 4.93934 16.4393C4.80005 16.5786 4.68956 16.744 4.61418 16.926C4.5388 17.108 4.5 17.303 4.5 17.5C4.5 17.8978 4.65804 18.2794 4.93934 18.5607C5.22064 18.842 5.60218 19 6 19C6.39782 19 6.77936 18.842 7.06066 18.5607C7.34196 18.2794 7.5 17.8978 7.5 17.5Z"/>
</g>
</svg>
