<svg width="22" height="18" viewBox="0 0 22 18" fill="#000000" xmlns="http://www.w3.org/2000/svg">
<path d="M10.9987 0C16.3907 0 20.8767 3.88 21.8177 9C20.8777 14.12 16.3907 18 10.9987 18C5.60669 18 1.12069 14.12 0.179688 9C1.11969 3.88 5.60669 0 10.9987 0ZM10.9987 16C13.0382 15.9996 15.0171 15.3068 16.6115 14.0352C18.206 12.7635 19.3216 10.9883 19.7757 9C19.3199 7.0133 18.2036 5.24 16.6093 3.97003C15.015 2.70005 13.037 2.00853 10.9987 2.00853C8.96038 2.00853 6.98238 2.70005 5.38806 3.97003C3.79375 5.24 2.67745 7.0133 2.22169 9C2.67578 10.9883 3.79136 12.7635 5.38583 14.0352C6.9803 15.3068 8.95922 15.9996 10.9987 16ZM10.9987 13.5C9.80521 13.5 8.66062 13.0259 7.81671 12.182C6.97279 11.3381 6.49869 10.1935 6.49869 9C6.49869 7.80653 6.97279 6.66193 7.81671 5.81802C8.66062 4.97411 9.80521 4.5 10.9987 4.5C12.1922 4.5 13.3368 4.97411 14.1807 5.81802C15.0246 6.66193 15.4987 7.80653 15.4987 9C15.4987 10.1935 15.0246 11.3381 14.1807 12.182C13.3368 13.0259 12.1922 13.5 10.9987 13.5ZM10.9987 11.5C11.6617 11.5 12.2976 11.2366 12.7665 10.7678C13.2353 10.2989 13.4987 9.66304 13.4987 9C13.4987 8.33696 13.2353 7.70107 12.7665 7.23223C12.2976 6.76339 11.6617 6.5 10.9987 6.5C10.3356 6.5 9.69976 6.76339 9.23092 7.23223C8.76208 7.70107 8.49869 8.33696 8.49869 9C8.49869 9.66304 8.76208 10.2989 9.23092 10.7678C9.69976 11.2366 10.3356 11.5 10.9987 11.5Z"/>
</svg>
