<svg width="22" height="22" viewBox="0 0 22 22" fill="#000000" xmlns="http://www.w3.org/2000/svg">
<path d="M16.8807 18.2971C15.1219 19.4126 13.0814 20.0034 10.9987 20.0001C5.60669 20.0001 1.12069 16.1201 0.179688 11.0001C0.609717 8.67078 1.78132 6.54296 3.51969 4.93407L0.390687 1.80807L1.80569 0.393066L21.6047 20.1931L20.1897 21.6071L16.8797 18.2971H16.8807ZM4.93369 6.35007C3.57469 7.58566 2.628 9.20885 2.22169 11.0001C2.53398 12.3665 3.16095 13.6412 4.05269 14.7227C4.94443 15.8041 6.07631 16.6625 7.35824 17.2294C8.64017 17.7963 10.0367 18.0561 11.4368 17.9882C12.8368 17.9203 14.2017 17.5264 15.4227 16.8381L13.3947 14.8101C12.5314 15.3539 11.5089 15.5882 10.4949 15.4745C9.48096 15.3608 8.53573 14.906 7.81426 14.1845C7.09279 13.463 6.63791 12.5178 6.52425 11.5038C6.41058 10.4899 6.64487 9.46738 7.18869 8.60407L4.93369 6.35007ZM11.9127 13.3281L8.67069 10.0861C8.49275 10.539 8.45088 11.034 8.55019 11.5104C8.64951 11.9868 8.8857 12.4238 9.22981 12.7679C9.57391 13.1121 10.011 13.3482 10.4873 13.4476C10.9637 13.5469 11.4588 13.505 11.9117 13.3271L11.9127 13.3281ZM19.8057 15.5921L18.3747 14.1621C19.0432 13.2094 19.5191 12.1353 19.7757 11.0001C19.5039 9.80979 18.993 8.68721 18.2738 7.70056C17.5547 6.71391 16.6425 5.88379 15.5926 5.26067C14.5426 4.63755 13.377 4.23443 12.1664 4.07583C10.9559 3.91723 9.72569 4.00645 8.55069 4.33807L6.97269 2.76007C8.21969 2.27007 9.57869 2.00007 10.9987 2.00007C16.3907 2.00007 20.8767 5.88007 21.8177 11.0001C21.5113 12.6658 20.8225 14.2376 19.8057 15.5921ZM10.7217 6.50807C11.3582 6.46873 11.9958 6.56513 12.5922 6.79088C13.1887 7.01663 13.7303 7.36658 14.1812 7.81752C14.6322 8.26846 14.9821 8.81009 15.2079 9.40652C15.4336 10.003 15.53 10.6406 15.4907 11.2771L10.7207 6.50807H10.7217Z"/>
</svg>
